<svg width="24" height="26" viewBox="0 0 24 26" fill="none" xmlns="http://www.w3.org/2000/svg">
<g clip-path="url(#clip0_3728_143)">
<path d="M7.42032 6.5938C7.42128 6.27161 7.42094 5.95346 7.4193 5.63934C7.41861 5.49547 7.42196 5.3592 7.42935 5.23052C7.55673 3.02108 9.27365 1.24487 11.464 1.03154C12.5085 0.930003 13.56 1.20262 14.4224 1.79708C15.6339 2.63236 16.3547 3.99605 16.3627 5.46334C16.3649 5.84091 16.3651 6.21759 16.3633 6.59339C16.3633 6.60118 16.3672 6.60508 16.375 6.60508H21.1809C21.1889 6.60508 21.1932 6.60905 21.1939 6.61698L22.7744 24.9844C22.7744 24.9851 22.7743 24.9858 22.7741 24.9864C22.7739 24.9871 22.7735 24.9877 22.773 24.9883C22.7725 24.9888 22.772 24.9892 22.7713 24.9895C22.7707 24.9898 22.77 24.9899 22.7692 24.9899H1.0154C1.01469 24.9899 1.01399 24.9898 1.01334 24.9895C1.01269 24.9892 1.0121 24.9888 1.01162 24.9883C1.01114 24.9877 1.01077 24.9871 1.01054 24.9864C1.0103 24.9858 1.01021 24.9851 1.01027 24.9844L2.59078 6.61698C2.59147 6.60905 2.59571 6.60508 2.6035 6.60508H7.40904C7.41656 6.60508 7.42032 6.60132 7.42032 6.5938ZM8.17868 6.60528H15.6101C15.6146 6.60528 15.6189 6.60349 15.6221 6.6003C15.6253 6.59711 15.6271 6.59277 15.6271 6.58826V5.51995C15.6271 5.02535 15.5307 4.53558 15.3435 4.07863C15.1562 3.62167 14.8817 3.20647 14.5357 2.85673C14.1897 2.507 13.779 2.22957 13.3269 2.04029C12.8748 1.85101 12.3903 1.75359 11.9009 1.75359H11.8878C10.8996 1.75359 9.95181 2.1504 9.25302 2.85673C8.55423 3.56306 8.16165 4.52105 8.16165 5.51995V6.58826C8.16165 6.59277 8.16345 6.59711 8.16664 6.6003C8.16983 6.60349 8.17416 6.60528 8.17868 6.60528ZM21.9631 24.2278L20.5118 7.36057C20.5111 7.35263 20.5068 7.34867 20.4989 7.34867H16.3752C16.3677 7.34867 16.3639 7.3525 16.3639 7.36016C16.3638 8.19079 16.3643 9.05383 16.3653 9.94928C16.3656 10.0921 16.3354 10.2047 16.222 10.2943C16.0238 10.4506 15.7436 10.3727 15.6462 10.1429C15.6278 10.0997 15.6187 10.0324 15.6189 9.94087C15.6211 9.08289 15.6214 8.22231 15.6199 7.35913C15.6199 7.35216 15.6164 7.34867 15.6094 7.34867H8.17335C8.1709 7.34867 8.16855 7.34964 8.16682 7.35137C8.16509 7.3531 8.16412 7.35545 8.16412 7.3579C8.16371 8.2446 8.16398 9.11995 8.16494 9.98395C8.16494 10.153 8.08555 10.2898 7.92473 10.3515C7.67283 10.4482 7.42053 10.2541 7.42053 9.99523C7.42053 9.12631 7.42053 8.24761 7.42053 7.35913C7.42053 7.35216 7.41697 7.34867 7.40986 7.34867H3.28576C3.27783 7.34867 3.27352 7.35263 3.27283 7.36057L1.82073 24.2356C1.82018 24.2426 1.82347 24.2461 1.83058 24.2461H21.9465C21.9586 24.2461 21.9642 24.24 21.9631 24.2278Z" stroke="white"/>
<path d="M12.2695 17.3613L13.249 16.8259C13.2585 16.8208 13.2609 16.8231 13.2564 16.8326L11.1586 21.4043C11.145 21.4337 11.1412 21.4325 11.1471 21.4006L11.6732 18.502C11.6747 18.4936 11.6718 18.4915 11.6644 18.4956L10.497 19.144C10.496 19.1446 10.4948 19.1448 10.4937 19.1448C10.4925 19.1447 10.4914 19.1442 10.4905 19.1435C10.4896 19.1428 10.4889 19.1418 10.4885 19.1407C10.4881 19.1396 10.4881 19.1384 10.4884 19.1373L11.3524 15.9494C11.355 15.9395 11.3519 15.9371 11.3432 15.9422L10.1225 16.6466C10.1214 16.6472 10.1202 16.6475 10.119 16.6474C10.1178 16.6473 10.1167 16.6469 10.1157 16.6462C10.1148 16.6454 10.1141 16.6445 10.1136 16.6433C10.1132 16.6422 10.1132 16.641 10.1134 16.6398L11.0281 13.077C11.0302 13.0686 11.0349 13.0623 11.0423 13.0579L13.2402 11.7358C13.2512 11.7293 13.2542 11.7319 13.2494 11.7436L12.0626 14.7174C12.0556 14.735 12.0602 14.739 12.0765 14.7293L13.5069 13.869C13.5212 13.8603 13.5255 13.8639 13.5198 13.8796L12.2611 17.3541C12.2608 17.3552 12.2607 17.3564 12.261 17.3576C12.2613 17.3587 12.262 17.3598 12.2629 17.3605C12.2638 17.3613 12.2649 17.3618 12.2661 17.3619C12.2673 17.362 12.2685 17.3618 12.2695 17.3613Z" fill="#FFB500"/>
</g>
<defs>
<clipPath id="clip0_3728_143">
<rect width="24" height="26" fill="white"/>
</clipPath>
</defs>
</svg>
