<svg width="250" height="25" viewBox="0 0 250 25" fill="none" xmlns="http://www.w3.org/2000/svg">
<path opacity="0.07" d="M35 0.25H3C1.3 0.25 0 1.55 0 3.25V21.25C0 22.95 1.4 24.25 3 24.25H35C36.7 24.25 38 22.95 38 21.25V3.25C38 1.55 36.6 0.25 35 0.25Z" fill="black"/>
<path d="M35 1.25C36.1 1.25 37 2.15 37 3.25V21.25C37 22.35 36.1 23.25 35 23.25H3C1.9 23.25 1 22.35 1 21.25V3.25C1 2.15 1.9 1.25 3 1.25H35Z" fill="white"/>
<path d="M28.3 10.35H28C27.6 11.35 27.3 11.85 27 13.35H28.9C28.6 11.85 28.6 11.15 28.3 10.35ZM31.2 16.25H29.5C29.4 16.25 29.4 16.25 29.3 16.15L29.1 15.25L29 15.05H26.6C26.5 15.05 26.4 15.05 26.4 15.25L26.1 16.15C26.1 16.25 26 16.25 26 16.25H23.9L24.1 15.75L27 8.95C27 8.45 27.3 8.25 27.8 8.25H29.3C29.4 8.25 29.5 8.25 29.5 8.45L30.9 14.95C31 15.35 31.1 15.65 31.1 16.05C31.2 16.15 31.2 16.15 31.2 16.25ZM17.8 15.95L18.2 14.15C18.3 14.15 18.4 14.25 18.4 14.25C19.1 14.55 19.8 14.75 20.5 14.65C20.7 14.65 21 14.55 21.2 14.45C21.7 14.25 21.7 13.75 21.3 13.35C21.1 13.15 20.8 13.05 20.5 12.85C20.1 12.65 19.7 12.45 19.4 12.15C18.2 11.15 18.6 9.75 19.3 9.05C19.9 8.65 20.2 8.25 21 8.25C22.2 8.25 23.5 8.25 24.1 8.45H24.2C24.1 9.05 24 9.55 23.8 10.15C23.3 9.95 22.8 9.75 22.3 9.75C22 9.75 21.7 9.75 21.4 9.85C21.2 9.85 21.1 9.95 21 10.05C20.8 10.25 20.8 10.55 21 10.75L21.5 11.15C21.9 11.35 22.3 11.55 22.6 11.75C23.1 12.05 23.6 12.55 23.7 13.15C23.9 14.05 23.6 14.85 22.8 15.45C22.3 15.85 22.1 16.05 21.4 16.05C20 16.05 18.9 16.15 18 15.85C17.9 16.05 17.9 16.05 17.8 15.95ZM14.3 16.25C14.4 15.55 14.4 15.55 14.5 15.25C15 13.05 15.5 10.75 15.9 8.55C16 8.35 16 8.25 16.2 8.25H18C17.8 9.45 17.6 10.35 17.3 11.45C17 12.95 16.7 14.45 16.3 15.95C16.3 16.15 16.2 16.15 16 16.15L14.3 16.25ZM5 8.45C5 8.35 5.2 8.25 5.3 8.25H8.7C9.2 8.25 9.6 8.55 9.7 9.05L10.6 13.45C10.6 13.55 10.6 13.55 10.7 13.65C10.7 13.55 10.8 13.55 10.8 13.55L12.9 8.45C12.8 8.35 12.9 8.25 13 8.25H15.1C15.1 8.35 15.1 8.35 15 8.45L11.9 15.75C11.8 15.95 11.8 16.05 11.7 16.15C11.6 16.25 11.4 16.15 11.2 16.15H9.7C9.6 16.15 9.5 16.15 9.5 15.95L7.9 9.75C7.7 9.55 7.4 9.25 7 9.15C6.4 8.85 5.3 8.65 5.1 8.65L5 8.45Z" fill="#142688"/>
<path opacity="0.07" d="M88 0.25H56C54.3 0.25 53 1.55 53 3.25V21.25C53 22.95 54.4 24.25 56 24.25H88C89.7 24.25 91 22.95 91 21.25V3.25C91 1.55 89.6 0.25 88 0.25Z" fill="black"/>
<path d="M88 1.25C89.1 1.25 90 2.15 90 3.25V21.25C90 22.35 89.1 23.25 88 23.25H56C54.9 23.25 54 22.35 54 21.25V3.25C54 2.15 54.9 1.25 56 1.25H88Z" fill="white"/>
<path d="M68 19.25C71.866 19.25 75 16.116 75 12.25C75 8.38401 71.866 5.25 68 5.25C64.134 5.25 61 8.38401 61 12.25C61 16.116 64.134 19.25 68 19.25Z" fill="#EB001B"/>
<path d="M76 19.25C79.866 19.25 83 16.116 83 12.25C83 8.38401 79.866 5.25 76 5.25C72.134 5.25 69 8.38401 69 12.25C69 16.116 72.134 19.25 76 19.25Z" fill="#F79E1B"/>
<path d="M75 12.25C75 9.85005 73.8 7.75005 72 6.55005C70.2 7.85005 69 9.95005 69 12.25C69 14.55 70.2 16.75 72 17.95C73.8 16.75 75 14.65 75 12.25Z" fill="#FF5F00"/>
<path opacity="0.07" d="M141 0.25H109C107.3 0.25 106 1.55 106 3.25V21.25C106 22.95 107.4 24.25 109 24.25H141C142.7 24.25 144 22.95 144 21.25V3.25C144 1.55 142.6 0.25 141 0.25Z" fill="black"/>
<path d="M141 1.25C142.1 1.25 143 2.15 143 3.25V21.25C143 22.35 142.1 23.25 141 23.25H109C107.9 23.25 107 22.35 107 21.25V3.25C107 2.15 107.9 1.25 109 1.25H141Z" fill="#006FCF"/>
<path d="M115 10.55L115.8 12.45H114.3L115 10.55ZM131 10.55H128V11.35H130.9V12.55H128V13.45H131V14.15L133.1 11.95L131 9.65V10.55ZM117 8.25H121L121.9 10.15L122.7 8.25H133.1L134.2 9.45L135.3 8.25H140.1L136.6 12.15L140.1 15.95H135.3L134.2 14.75L133.1 15.95H116L115.5 14.75H114.4L113.9 15.95H110L113.3 8.25H116.7H117ZM125.6 9.35H123.4L121.9 12.85L120.3 9.35H118.1V14.15L116 9.35H114L111.6 14.85H113.2L113.7 13.65H116.3L116.8 14.85H119.5V10.95L121.3 14.85H122.5L124.2 10.95V14.85H125.7L125.6 9.35ZM135 12.15L137.5 9.35H135.7L134.1 11.05L132.6 9.35H126.7V14.85H132.5L134.1 13.15L135.6 14.85H137.5L135 12.15Z" fill="white"/>
<path opacity="0.07" d="M194 0.25H162C160.3 0.25 159 1.55 159 3.25V21.25C159 22.95 160.4 24.25 162 24.25H194C195.7 24.25 197 22.95 197 21.25V3.25C197 1.55 195.6 0.25 194 0.25Z" fill="black"/>
<path d="M194 1.25C195.1 1.25 196 2.15 196 3.25V21.25C196 22.35 195.1 23.25 194 23.25H162C160.9 23.25 160 22.35 160 21.25V3.25C160 2.15 160.9 1.25 162 1.25H194Z" fill="white"/>
<path d="M182.9 8.55C183.1 7.55 182.9 6.85 182.3 6.25C181.7 5.55 180.6 5.25 179.2 5.25H175.1C174.8 5.25 174.6 5.45 174.5 5.75L173 15.85C173 16.05 173.1 16.25 173.3 16.25H176L176.4 12.85L178.2 10.65L182.9 8.55Z" fill="#003087"/>
<path d="M182.9 8.5498L182.7 8.7498C182.2 11.5498 180.5 12.5498 178.1 12.5498H177C176.7 12.5498 176.5 12.7498 176.4 13.0498L175.8 16.9498L175.6 17.9498C175.6 18.1498 175.7 18.3498 175.9 18.3498H178C178.3 18.3498 178.5 18.1498 178.5 17.9498V17.8498L178.9 15.4498V15.3498C178.9 15.1498 179.2 14.9498 179.4 14.9498H179.7C181.8 14.9498 183.4 14.1498 183.8 11.7498C184 10.7498 183.9 9.9498 183.4 9.3498C183.3 8.8498 183.1 8.6498 182.9 8.5498Z" fill="#3086C8"/>
<path d="M182.3 8.3498C182.2 8.2498 182.1 8.2498 182 8.2498C181.9 8.2498 181.8 8.2498 181.7 8.1498C181.4 8.0498 181 8.0498 180.6 8.0498H177.6C177.5 8.0498 177.4 8.0498 177.4 8.1498C177.2 8.2498 177.1 8.3498 177.1 8.5498L176.4 12.9498V13.0498C176.4 12.7498 176.7 12.5498 177 12.5498H178.3C180.8 12.5498 182.4 11.5498 182.9 8.7498V8.5498C182.8 8.4498 182.6 8.3498 182.4 8.3498H182.3Z" fill="#012169"/>
<path opacity="0.07" d="M247 0.25H215C213.3 0.25 212 1.55 212 3.25V21.25C212 22.95 213.4 24.25 215 24.25H247C248.7 24.25 250 22.95 250 21.25V3.25C250 1.55 248.6 0.25 247 0.25Z" fill="black"/>
<path d="M247 1.25C248.1 1.25 249 2.15 249 3.25V21.25C249 22.35 248.1 23.25 247 23.25H215C213.9 23.25 213 22.35 213 21.25V3.25C213 2.15 213.9 1.25 215 1.25H247Z" fill="white"/>
<path d="M224 12.25V15.95C224 16.25 223.8 16.25 223.5 16.15C221.6 15.35 220.5 12.85 221.2 10.75C221.6 9.65 222.4 8.75 223.5 8.35C223.9 8.15 224 8.25 224 8.55V12.25ZM226 12.25V8.55C226 8.25 226 8.25 226.3 8.35C228.4 9.15 229.5 11.65 228.7 13.75C228.3 14.85 227.5 15.75 226.4 16.15C226 16.35 226 16.25 226 15.95V12.25ZM233.2 5.25H225C228.8 5.25 231.8 8.35 231.8 12.25C231.8 16.15 228.8 19.25 225 19.25H233.2C237 19.25 240 16.15 240 12.25C240 8.35 237 5.25 233.2 5.25Z" fill="#3086C8"/>
</svg>
