<svg width="23" height="26" viewBox="0 0 23 26" fill="none" xmlns="http://www.w3.org/2000/svg">
<g clip-path="url(#clip0_3728_146)">
<path d="M22.2923 19.4538V24.99L1 24.9898V19.4513C1.00643 19.3626 1.01272 19.2738 1.01887 19.1849C1.10708 17.8976 1.48075 16.7112 2.1399 15.6255C3.30051 13.7135 5.23774 12.3465 7.44431 11.9317C7.45648 11.9294 7.45798 11.9241 7.44882 11.9157C6.27262 10.8601 5.5159 9.38384 5.38667 7.80168C5.28848 6.59799 5.51227 5.46315 6.05805 4.39717C6.73785 3.06917 7.91569 2.00579 9.28697 1.45994C10.3149 1.05078 11.3761 0.921137 12.4706 1.07102C13.9479 1.27307 15.3179 2.01153 16.2997 3.13153C17.1709 4.12579 17.7231 5.37009 17.8363 6.69625C17.9341 7.8436 17.7375 8.93194 17.2466 9.96127C16.8952 10.6977 16.3918 11.3605 15.7852 11.9079C15.7843 11.9088 15.7836 11.9099 15.7833 11.9111C15.7829 11.9123 15.7829 11.9136 15.7832 11.9148C15.7836 11.916 15.7843 11.9171 15.7852 11.918C15.7861 11.9188 15.7873 11.9194 15.7885 11.9196C17.1586 12.1754 18.3757 12.7477 19.4396 13.6368C20.0619 14.1568 20.5934 14.7573 21.034 15.4382C21.7398 16.5287 22.1493 17.7298 22.2626 19.0415C22.2745 19.1786 22.2844 19.3161 22.2923 19.4538ZM17.1167 7.25974C17.1167 6.53689 16.9743 5.82111 16.6977 5.15329C16.4211 4.48546 16.0156 3.87866 15.5045 3.36753C14.9934 2.8564 14.3866 2.45095 13.7188 2.17432C13.0509 1.8977 12.3352 1.75532 11.6123 1.75532C10.1524 1.75532 8.75238 2.33525 7.7201 3.36753C6.68782 4.39981 6.1079 5.79987 6.1079 7.25974C6.1079 8.7196 6.68782 10.1197 7.7201 11.1519C8.75238 12.1842 10.1524 12.7641 11.6123 12.7641C12.3352 12.7641 13.0509 12.6218 13.7188 12.3451C14.3866 12.0685 14.9934 11.6631 15.5045 11.1519C16.0156 10.6408 16.4211 10.034 16.6977 9.36618C16.9743 8.69836 17.1167 7.98258 17.1167 7.25974ZM20.9395 16.822C19.8736 14.4232 17.5479 12.7545 14.9329 12.559C14.9275 12.5586 14.9224 12.5598 14.9177 12.5627C14.0059 13.1222 13.0362 13.433 12.0088 13.4952C10.6904 13.5752 9.45914 13.2662 8.31508 12.5682C8.30854 12.5642 8.30092 12.5625 8.29333 12.5631C7.14708 12.6694 6.09586 13.0216 5.13969 13.6197C3.15303 14.8624 1.87077 16.9943 1.75138 19.344C1.7455 19.4586 1.74263 19.5945 1.74277 19.7516C1.74373 21.2867 1.74393 22.7811 1.74338 24.2349C1.74338 24.2424 1.74715 24.2462 1.75467 24.2462H21.5378C21.5452 24.2462 21.5489 24.2424 21.5489 24.2349C21.5484 22.7148 21.5484 21.1929 21.5491 19.6694C21.5495 18.6891 21.3344 17.7106 20.9395 16.822Z" stroke="white"/>
<path d="M16.3404 18.7858L15.6056 19.2102C15.6049 19.2106 15.6041 19.2108 15.6033 19.2107C15.6024 19.2106 15.6017 19.2103 15.601 19.2097C15.6004 19.2092 15.5999 19.2085 15.5996 19.2076C15.5993 19.2068 15.5993 19.206 15.5995 19.2051L16.155 17.041C16.1569 17.0335 16.1611 17.0277 16.1677 17.0238L17.4897 16.2289C17.5056 16.2195 17.5101 16.2233 17.5033 16.2404L16.7892 18.0291C16.784 18.0422 16.7874 18.0452 16.7995 18.0379L17.6657 17.5171C17.6742 17.5121 17.6768 17.5142 17.6735 17.5235L16.9115 19.6271C16.9071 19.6391 16.9105 19.642 16.9217 19.6359L17.4963 19.3214C17.5107 19.3136 17.5144 19.3171 17.5076 19.3319C17.0904 20.2412 16.672 21.1531 16.2526 22.0677C16.2456 22.0827 16.2391 22.0951 16.2329 22.1048C16.2272 22.114 16.2253 22.1132 16.2272 22.1026L16.5466 20.3417C16.5479 20.3345 16.5453 20.3326 16.5388 20.3362L15.8372 20.7261C15.8362 20.7268 15.8349 20.727 15.8337 20.727C15.8325 20.7269 15.8313 20.7264 15.8304 20.7257C15.8294 20.7249 15.8287 20.7239 15.8283 20.7228C15.8279 20.7216 15.8279 20.7203 15.8282 20.7192L16.3503 18.7934C16.3531 18.783 16.3498 18.7805 16.3404 18.7858Z" fill="#FFB500"/>
</g>
<defs>
<clipPath id="clip0_3728_146">
<rect width="23" height="26" fill="white"/>
</clipPath>
</defs>
</svg>
